<svg width="40" height="40" viewBox="0 0 40 40" fill="none" xmlns="http://www.w3.org/2000/svg">
<path d="M20 0C8.96506 0 0 8.97941 0 20.032C0 30.0654 7.38867 38.3689 17.0117 39.8168L18.0558 39.9751V24.1899H13.331V20.9852H18.0558V16.7295C18.0558 14.1089 18.6836 12.3829 19.723 11.3C20.7624 10.2171 22.2982 9.67099 24.4354 9.67099C26.1443 9.67099 26.8091 9.7747 27.4414 9.85239V12.4755H25.2166C23.9543 12.4755 22.9186 13.181 22.381 14.1206C21.8435 15.0602 21.6761 16.1821 21.6761 17.3253V20.9835H27.2425L26.7472 24.1882H21.6761V40L22.7077 39.8595C32.4676 38.5337 40 30.1635 40 20.032C40 8.97941 31.0349 0 20 0ZM20 1.82109C30.0523 1.82109 38.1818 9.96359 38.1818 20.032C38.1818 28.8914 31.8507 36.1776 23.4943 37.8179V26.0092H28.3061L29.3626 19.1624H23.4943V17.3253C23.4943 16.3806 23.6669 15.5342 23.9577 15.0258C24.2486 14.5174 24.529 14.2966 25.2166 14.2966H29.2596V8.20381L28.4712 8.0971C27.926 8.0232 26.6811 7.8499 24.4354 7.8499C21.978 7.8499 19.8687 8.52039 18.4126 10.0373C16.9566 11.5543 16.2376 13.8131 16.2376 16.7295V19.1641H11.5128V26.011H16.2376V37.761C8.01545 36.0165 1.81818 28.7955 1.81818 20.032C1.81818 9.96359 9.94767 1.82109 20 1.82109Z" fill="white"/>
</svg>
